# xmcd CD database file
#
# Track frame offsets:
#	150
#	24126
#	51175
#	71679
#	92973
#	111827
#	134772
#	150453
#	175472
#	190440
#	203405
#	218600
#
# Disc length: 3141 seconds
#
# Revision: 0
# Processed by: cddbd v1.5PL3 Copyright (c) Steve Scherf et al.
# Submitted via: CDex 1.40Beta9
#
DISCID=a80c430c
DTITLE=The Corn - The Corn
DYEAR=1998
DGENRE=Blues
TTITLE0=Moving Mountain
TTITLE1=Source Of Life
TTITLE2=Indiana
TTITLE3=Cheap Pick Up
TTITLE4=My Conjure
TTITLE5=The Thruth
TTITLE6=Dream Swamp
TTITLE7=Sound Of Chicade Wings
TTITLE8=Hear Me Right
TTITLE9=Tearjerking Man
TTITLE10=Lock Up
TTITLE11=Stay
EXTD=YEAR: 1998 ID3G: 0
EXTT0=
EXTT1=
EXTT2=
EXTT3=
EXTT4=
EXTT5=
EXTT6=
EXTT7=
EXTT8=
EXTT9=
EXTT10=
EXTT11=
PLAYORDER=
